<svg width="198" height="51" viewBox="0 0 198 51" fill="none" xmlns="http://www.w3.org/2000/svg">
<path d="M177.033 2C179.289 2 181.516 2.66949 183.155 4.22094C186.506 7.39226 191.216 13.0784 194.876 21.0889C196.008 23.5673 195.97 26.4103 194.829 28.8849C192.084 34.8423 187.558 42.9621 182.748 46.9618C181.369 48.1091 179.562 48.5 177.768 48.5H21.2878C19.4582 48.5 17.6353 48.075 16.1722 46.9764C12.1228 43.9358 6.21891 37.6618 2.9164 28.0234C2.24774 26.0718 2.30271 23.9481 3.02252 22.0149C5.66238 14.925 10.9462 4.51478 17.4508 2.2849C18.136 2.04999 18.8648 2 19.5892 2H177.033Z" fill="#E0A922"/>
<path d="M177.033 2C179.289 2 181.516 2.66949 183.155 4.22094C186.506 7.39226 191.216 13.0784 194.876 21.0889C196.008 23.5673 195.97 26.4103 194.829 28.8849C192.084 34.8423 187.558 42.9621 182.748 46.9618C181.369 48.1091 179.562 48.5 177.768 48.5H21.2878C19.4582 48.5 17.6353 48.075 16.1722 46.9764C12.1228 43.9358 6.21891 37.6618 2.9164 28.0234C2.24774 26.0718 2.30271 23.9481 3.02252 22.0149C5.66238 14.925 10.9462 4.51478 17.4508 2.2849C18.136 2.04999 18.8648 2 19.5892 2H177.033Z" stroke="#E0A922" stroke-width="4"/>
<path d="M177.033 2C179.289 2 181.516 2.66949 183.155 4.22094C186.506 7.39226 191.216 13.0784 194.876 21.0889C196.008 23.5673 195.97 26.4103 194.829 28.8849C192.084 34.8423 187.558 42.9621 182.748 46.9618C181.369 48.1091 179.562 48.5 177.768 48.5H21.2878C19.4582 48.5 17.6353 48.075 16.1722 46.9764C12.1228 43.9358 6.21891 37.6618 2.9164 28.0234C2.24774 26.0718 2.30271 23.9481 3.02252 22.0149C5.66238 14.925 10.9462 4.51478 17.4508 2.2849C18.136 2.04999 18.8648 2 19.5892 2H177.033Z" stroke="white" stroke-opacity="0.2" stroke-width="4"/>
</svg>
